<?xml version="1.0" encoding="UTF-8"?><svg id="Layer_2" xmlns="http://www.w3.org/2000/svg" viewBox="0 0 750 750"><defs><style>.cls-1{fill:#fff;}</style></defs><g id="Layer_5"><g id="Layer_2-2"><circle cx="375" cy="375" r="375"/><g id="Layer_6"><g id="Layer_4"><path class="cls-1" d="M153.43,365.27c171.07-75.74,403.35-155.49,404.49-155.97h.04c.14-.07,.67-.29,1.38-.54,1.16-.4,7.11-2.45,13.2-.81,7.77,2.09,12.72,9.37,14.27,15.65,.31,1.25,.47,3.84,.57,6.33,0,0,.13,3.29-.07,6.6-.3,4.86-30.24,145.13-71.64,336.25-.38,1.54-.75,3.09-1.13,4.63-.17,.87-.47,2.1-.99,3.52-.55,1.51-3.12,8.5-9.56,12.12-7.31,4.11-15.6,1.13-19.19-.17-4.02-1.45-6.73-3.41-7.51-3.97-8.1-5.91-48.98-36.06-104.94-77.57-16.41,15.84-32.82,31.68-49.24,47.52-.97,.94-2.82,2.55-5.4,4.39-3.02,2.15-5.88,4.24-10,5.66-1.77,.61-4.4,1.32-7.75,1.51l-.43-.02,8.28-108.39c63.47-58.81,127.3-117.21,191.49-175.2,.31-.28,2.82-2.55,3.13-2.83,.17-.16,.34-.31,.5-.47,1.07-1.01,2.12-2.02,3.13-3.03,.33-.23,.8-.64,1.04-1.28,.66-1.75-1.01-3.64-1.1-3.75-1.75-1.92-6.28-1.48-11.19,1.05-82,51.64-164,103.29-245.99,154.93-37.1-11.31-74.2-22.62-111.3-33.93-.17-.05-.99-.19-2.02-.57-3.68-1.37-6.33-4.29-7.27-6.09-2.34-4.47,.3-12.61,7.88-17.84,8.12-3.67,14.42-6.47,17.3-7.74Z"/></g></g></g></g></svg>