<?xml version="1.0" encoding="UTF-8"?><svg id="Layer_2" xmlns="http://www.w3.org/2000/svg" viewBox="0 0 750 750"><defs><style>.cls-1{fill:#fff;}</style></defs><g id="Layer_5"><g id="Layer_2-2"><g id="Layer_9"><circle cx="375" cy="375" r="375"/></g><g id="Layer_10"><path class="cls-1" d="M317.91,338.82c0-18.48,.06-36.95-.03-55.43-.03-6.13-2.53-11.22-7.72-14.65-6.25-4.12-12.72-7.9-18.95-12.05-5.06-3.37-9.24-7.62-10.96-13.7-2.44-8.59,3.24-16.67,12.14-17.4,1.19-.1,2.39-.14,3.58-.14,30.98,0,61.95,.06,92.93-.04,9.71-.03,16.99,3.88,21.69,12.32,2.86,5.14,3.72,10.83,3.61,16.66-.38,20.95-.93,41.91-1.14,62.86-.15,14.76,.1,29.52,.26,44.27,.03,3.14,.47,6.28,.7,9.42,.54,7.48,5.1,12.07,11.39,15.02,6.3,2.96,12.58,1.95,17.54-2.74,3.72-3.53,6.89-7.81,9.64-12.17,16.91-26.78,32.64-54.25,46.76-82.61,6.52-13.1,12.64-26.36,16.87-40.45,2.9-9.67,8.18-17.76,18.37-20.8,5.11-1.52,10.67-1.96,16.04-2.04,12.69-.19,25.4,.12,38.09,.23,5.63,.05,11.26,.02,16.89,.18,13.29,.39,20.17,11.51,18.7,23.43-1.21,9.78-6.25,17.98-10.49,26.44-12.05,24.02-24.28,47.96-36.8,71.74-10.25,19.47-20.86,38.75-31.58,57.97-6.07,10.88-5.15,21.81,3.24,31.05,15.62,17.19,30.65,34.92,45.96,52.39,13.95,15.92,28.02,31.74,41.85,47.76,2.72,3.15,5.15,6.82,6.71,10.66,4.01,9.86-2.37,19.62-12.96,19.65-26.29,.06-52.6,.14-78.88-.52-16.48-.42-30.35-7.74-41.52-19.74-20.12-21.6-40.03-43.41-60.06-65.11-4.51-4.88-9.66-8.61-16.6-9.32-9.88-1-17.74,5.83-17.76,15.76-.04,19.13,.07,38.26-.08,57.39-.03,3.51-.37,7.27-1.67,10.47-3.33,8.2-10.52,10.98-18.67,11.07-18.58,.22-37.19,.55-55.74-.18-6.61-.26-13.29-2.98-19.61-5.42-24.74-9.56-46.58-23.98-66.81-40.94-18.85-15.81-36.01-33.28-50.9-52.9-12.8-16.87-24.24-34.66-35.06-52.85-19.47-32.73-37.02-66.48-53.21-100.93-10.55-22.44-20.51-45.16-30.61-67.82-3.45-7.74-.67-15.35,6.68-19.01,1.4-.7,3.1-1.09,4.67-1.1,22.93-.06,45.87-.44,68.79,.1,20.02,.46,36.12,9.53,47.75,25.7,4.7,6.54,8.07,14.07,11.72,21.31,11.96,23.71,23.52,47.62,35.73,71.2,7.97,15.39,16.7,30.4,25.29,45.47,2.41,4.22,5.28,8.24,8.39,11.98,4.14,4.97,9.4,7.66,16.13,5.7,5.91-1.72,9.8-6.85,9.81-13.04,.02-18.37,0-36.74,0-55.1h-.11Z"/></g></g></g></svg>