<?xml version="1.0" encoding="UTF-8"?><svg id="Layer_2" xmlns="http://www.w3.org/2000/svg" viewBox="0 0 750 750"><defs><style>.cls-1{fill:#f5f5f5;}</style></defs><g id="Layer_5"><g id="Layer_2-2"><g id="Layer_9"><circle cx="375" cy="375" r="375"/></g><g id="Layer_11"><g><path class="cls-1" d="M373.22,673.01c-6.27-2.53-12.68-4.77-18.79-7.64-17.92-8.43-34.66-18.92-50.94-30.14-28.78-19.83-55.46-42.17-79.98-67.08-20.57-20.9-39.21-43.39-55.3-67.95-18.26-27.87-30.44-58.37-39.12-90.38-6.26-23.11-10.51-46.6-13.36-70.36-3.26-27.14-4.75-54.38-4.28-81.71,.18-10.75,1.18-21.49,1.67-32.24,.1-2.2,1.11-3.22,3.05-3.7,8.97-2.2,17.92-4.45,26.9-6.57,5.44-1.28,10.91-2.45,16.41-3.49,2.14-.4,3.51-1.42,4.46-3.29,2.92-5.74,6.05-11.38,8.75-17.22,1.02-2.21,2.34-3.22,4.6-3.68,12.04-2.44,24.06-4.98,36.09-7.48,1.41-.29,2.81-.8,4.23-.84,3.8-.11,5.56-2.22,6.76-5.62,2.46-6.95,5.47-13.7,7.85-20.67,1.31-3.83,3.56-5.8,7.43-6.57,8.72-1.73,17.35-4.02,26.12-5.44,33.71-5.45,67.49-10.44,101.16-16.09,7.05-1.18,13.61-.04,20.33,.96,24.05,3.6,48.12,7.08,72.1,11.07,16.7,2.78,33.27,6.37,49.92,9.48,4.01,.75,6.22,2.88,7.57,6.75,2.59,7.44,5.69,14.7,8.46,22.07,.83,2.21,2.12,3.29,4.51,3.76,14.04,2.79,28.04,5.8,42.07,8.65,2.2,.45,3.4,1.48,4.39,3.58,2.81,5.98,6,11.77,9.02,17.65,.84,1.63,2.09,2.43,3.92,2.83,12.83,2.79,25.64,5.68,38.45,8.59,1.98,.45,3.88,1.22,5.83,1.79,1.47,.43,2.22,1.27,2.32,2.88,.41,6.68,1.08,13.35,1.37,20.04,1,23.75,.31,47.48-1.64,71.15-2.95,35.73-8.9,70.91-19.13,105.35-11.92,40.12-31.28,76.22-57.51,108.76-39.91,49.5-87.28,90.4-141.76,123.08-12.73,7.63-25.8,14.66-40.06,19.15-.3,.09-.55,.36-.82,.55h-3.05Zm226.92-386.44c-.65-11.93-1.34-23.86-1.91-35.79-.1-2.07-1.06-3.08-2.88-3.59-1.88-.53-3.73-1.16-5.63-1.59-10.5-2.34-21.01-4.65-31.53-6.89-1.65-.35-2.75-1.1-3.48-2.58-2.47-5.02-5.09-9.96-7.41-15.05-.84-1.84-1.89-2.76-3.84-3.15-12.05-2.4-24.07-4.95-36.12-7.29-2.03-.39-3.1-1.27-3.8-3.12-2.38-6.35-5.01-12.6-7.24-19-1.1-3.15-2.97-4.89-6.17-5.54-9.88-2-19.69-4.39-29.62-6.05-23.4-3.91-46.84-7.57-70.29-11.14-7.96-1.21-15.74-2.83-24.1-1.35-26.78,4.73-53.71,8.55-80.54,13-9.43,1.57-18.72,3.98-28.07,5.98-2.19,.47-3.47,1.75-4.27,3.85-2.48,6.49-5.21,12.89-7.61,19.41-.97,2.65-2.56,3.72-5.28,4.24-11.49,2.18-22.92,4.64-34.39,6.91-2.2,.43-3.46,1.41-4.4,3.55-2.14,4.88-4.72,9.57-7.03,14.38-.9,1.86-2.29,2.74-4.27,3.12-5.08,.97-10.15,1.99-15.18,3.15-7.18,1.66-14.32,3.47-21.48,5.21-1.91,.46-2.74,1.61-2.84,3.62-.21,4.32-.7,8.62-.92,12.93-.88,16.95-.59,33.89,.33,50.84,1.33,24.41,4.31,48.6,9.35,72.53,4.79,22.79,11.52,44.96,21.01,66.27,11.15,25.02,26.74,47.15,44.4,67.87,30.76,36.09,66.49,66.47,106.72,91.54,11.59,7.22,23.54,13.78,36.29,18.82,4.56,1.8,8.68,1.76,13.21-.03,10.29-4.07,20.07-9.11,29.54-14.76,41.76-24.93,78.66-55.71,110.63-92.35,14.75-16.9,28.13-34.82,38.92-54.55,13.08-23.9,21.67-49.47,27.74-75.93,8.11-35.35,11.49-71.23,12.16-107.47Z"/><path class="cls-1" d="M385.21,596.64c-.05-1.1-.12-1.92-.12-2.74,0-85.73,.01-171.46,.02-257.18,0-42.4-.01-84.8-.02-127.19,0-3.89,0-4,3.94-3.93,13.26,.24,26.05,2.93,38.43,7.64,1.73,.66,2.17,1.69,2.16,3.45-.06,14.5-.04,29-.04,43.5,0,34.77,0,69.53,0,104.3,0,1.06,0,2.12,0,3.17l.67,.41c1.24-.77,2.64-1.36,3.7-2.33,4.58-4.16,9.23-8.26,13.54-12.69,26.98-27.71,53.13-56.18,77.49-86.26,3.15-3.89,3.2-3.88,7.08-.88,8.24,6.36,14.67,14.28,19.8,23.29,.58,1.03,1.03,2.13,1.5,3.22,.89,2.05,.55,3.78-.85,5.64-15.31,20.24-31.76,39.51-49.03,58.1-2.24,2.41-4.42,4.88-6.92,7.65,1.6,.91,2.94,1.72,4.31,2.45,8,4.28,15.23,9.52,20.98,16.64,7.11,8.81,10.79,18.86,11.15,30.19,.42,13.09-3.05,25.33-7.99,37.23-7.8,18.77-18.45,35.91-31.16,51.66-8.88,11-18.67,21.26-28.08,31.83-2.82,3.16-5.73,6.25-8.62,9.35-.62,.66-1.32,1.25-1.98,1.87l-.49-.24c.29-1,.55-2,.87-2.99,5.9-18.03,11.98-36,17.67-54.09,5.16-16.4,9.58-33.02,12.24-50.04,1.16-7.45,2.4-14.93,.3-22.43-2.14-7.64-6.16-14.1-12.29-19.18-3.23-2.67-3.93-2.61-7.21-.01-9.04,7.15-18.06,14.34-27.14,21.44-2.06,1.61-4.21,3.25-6.58,4.28-2.44,1.06-3.01,2.5-3,5.01,.09,30.95,.06,61.9,.06,92.85,0,14.84-.02,29.68,.03,44.52,0,1.82-.42,3.32-1.69,4.6-12.13,12.24-25.62,22.41-42.71,27.91Z"/><path class="cls-1" d="M319.93,256.94c-6.11,2.25-11.71,4.17-17.2,6.35-25.67,10.19-48.95,24.36-70.08,42.13-2.22,1.87-3.16,3.54-2.67,6.64,2.25,14.22,3.95,28.52,6.23,42.73,4.42,27.53,10.65,54.67,18.09,81.54,9.91,35.81,22.22,70.77,36.9,104.9,.33,.77,.64,1.54,.67,2.59-.55-.53-1.13-1.04-1.64-1.6-42.28-46.67-71.3-100.52-87.38-161.38-5.27-19.93-9.17-40.14-11.01-60.67-1.21-13.58-1.45-27.24-2.22-40.86-.11-1.96,.64-3.04,2.18-4.14,34.57-24.61,72.18-43.25,112.29-56.92,12.91-4.4,25.88-8.67,39.38-10.87,5.99-.97,12.12-1.12,18.2-1.43,2.76-.14,2.79,.08,2.79,2.81,0,21.96-.02,43.92-.02,65.88,0,76.57,.03,153.14,.04,229.7,0,30.02,0,60.03-.01,90.05,0,.67,0,1.34,0,2.36-2.66-1.01-5.1-1.85-7.48-2.85-13.59-5.72-24.88-14.69-35.22-25.01-1.6-1.59-1.85-3.44-1.85-5.56,.03-100.65,.02-201.3,.02-301.95v-4.47Z"/></g></g></g></g></svg>